<?xml version="1.0" encoding="utf-8"?>
<!-- Generator: Adobe Illustrator 24.0.1, SVG Export Plug-In . SVG Version: 6.00 Build 0)  -->
<svg version="1.1" id="Camada_1" xmlns="http://www.w3.org/2000/svg" xmlns:xlink="http://www.w3.org/1999/xlink" x="0px" y="0px"
	 viewBox="0 0 24 24" style="enable-background:new 0 0 24 24;" xml:space="preserve">
<style type="text/css">
	.st0{fill:#A50C0C;}
</style>
<path class="st0" d="M12,2.5c2.5,1.8,4.6,2.3,7,2.4v9.6c0,3-1.7,3.8-7,7.1c-5.3-3.3-7-4.1-7-7.1V5C7.4,4.8,9.5,4.3,12,2.5z M12,0
	C8.6,2.9,6.5,3,3,3v11.5c0,4.6,3.2,5.8,9,9.5c5.8-3.7,9-4.9,9-9.5V3C17.5,3,15.4,2.9,12,0z M16,14.7L13.2,12L16,9.2L14.7,8L12,10.8
	L9.2,8L8,9.3l2.8,2.7L8,14.8L9.3,16l2.7-2.8l2.8,2.7L16,14.7z"/>
</svg>
